<svg xmlns="http://www.w3.org/2000/svg" viewBox="0 0 471.121 120"><title>Turris_negativ_RGB</title><g id="Vrstva_2" data-name="Vrstva 2"><g id="Vrstva_1-2" data-name="Vrstva 1"><path d="M69.34,120,50.453,87.286H12.592L0,65.475H63.045L94.524,120H69.34M116.6,92.8,97.665,60.01,116.553,27.3,103.961,5.485,72.481,60.01,104,114.608ZM25.233,54.6,44.163,21.81H81.938L94.53,0H31.57L.049,54.6ZM199.05,40.8V27.3H146.264V40.8h18.49V92.751h15.808V40.8Zm62.68,27.272V27.3H245.921V66.774a19.642,19.642,0,0,1-.645,5.085,12,12,0,0,1-2.127,4.3,10.375,10.375,0,0,1-3.837,3,15.131,15.131,0,0,1-11.372,0,9.958,9.958,0,0,1-3.789-3,13,13,0,0,1-2.127-4.3,18.318,18.318,0,0,1-.693-5.085V27.3H205.615V68.068a28.738,28.738,0,0,0,1.941,10.769,23.472,23.472,0,0,0,5.548,8.321,25.287,25.287,0,0,0,8.782,5.409,35.785,35.785,0,0,0,23.251,0,26.253,26.253,0,0,0,8.921-5.409,23.462,23.462,0,0,0,5.685-8.321A28.182,28.182,0,0,0,261.73,68.068Zm66.283,24.683-17.1-28.011a19.666,19.666,0,0,0,9.984-6.472,17.4,17.4,0,0,0,3.6-11.186,19.069,19.069,0,0,0-2.125-9.43,17.2,17.2,0,0,0-5.685-6.1,23.952,23.952,0,0,0-8.044-3.282,43.286,43.286,0,0,0-9.2-.97H274.486V92.751h15.439V66.774h5.387l14.211,25.977ZM307.806,51.428a7.066,7.066,0,0,1-2.739,2.4,12.737,12.737,0,0,1-3.717,1.156,25.477,25.477,0,0,1-3.994.321h-7.523V40.057h8.454a25.349,25.349,0,0,1,3.669.277,10.956,10.956,0,0,1,3.436,1.062,6.673,6.673,0,0,1,2.507,2.22,6.523,6.523,0,0,1,.978,3.743A7.078,7.078,0,0,1,307.806,51.428Zm81.5,41.323L372.2,64.74a19.671,19.671,0,0,0,9.983-6.472,17.4,17.4,0,0,0,3.6-11.186,19.069,19.069,0,0,0-2.125-9.43,17.2,17.2,0,0,0-5.686-6.1,23.938,23.938,0,0,0-8.043-3.282,43.3,43.3,0,0,0-9.2-.97H335.777V92.751h15.441V66.774H356.6l14.21,25.977ZM369.1,51.428a7.078,7.078,0,0,1-2.738,2.4,12.756,12.756,0,0,1-3.717,1.156,25.512,25.512,0,0,1-4,.321h-7.522V40.057h8.453a25.339,25.339,0,0,1,3.669.277,10.963,10.963,0,0,1,3.437,1.062,6.676,6.676,0,0,1,2.508,2.22,6.531,6.531,0,0,1,.977,3.743A7.085,7.085,0,0,1,369.1,51.428Zm27.973,41.323h15.9V27.3h-15.9Zm74.05-59.073A29.192,29.192,0,0,0,461,27.669a33.987,33.987,0,0,0-11.325-2.034,36.876,36.876,0,0,0-9.152,1.155,25.056,25.056,0,0,0-8.135,3.651,19.288,19.288,0,0,0-5.825,6.379,18.532,18.532,0,0,0-2.219,9.337,17.871,17.871,0,0,0,1.432,7.536,16.507,16.507,0,0,0,3.791,5.269,20.549,20.549,0,0,0,5.363,3.558,54.879,54.879,0,0,0,6.149,2.4q3.231,1.018,5.776,1.9a21.388,21.388,0,0,1,4.252,1.941,9.05,9.05,0,0,1,2.636,2.357,5.278,5.278,0,0,1,.924,3.143,6.992,6.992,0,0,1-.74,3.33,6,6,0,0,1-1.988,2.217,8.477,8.477,0,0,1-2.91,1.2,15.648,15.648,0,0,1-3.422.371,17.186,17.186,0,0,1-7.811-1.988,19.109,19.109,0,0,1-6.333-4.946L421.107,84.985a28.752,28.752,0,0,0,10.908,6.98,38.532,38.532,0,0,0,13.59,2.45,33.855,33.855,0,0,0,9.337-1.293,23.986,23.986,0,0,0,8.043-3.976,19.439,19.439,0,0,0,5.592-6.794,21.362,21.362,0,0,0,2.082-9.755,15.835,15.835,0,0,0-1.943-8.182,18.7,18.7,0,0,0-4.9-5.5,26,26,0,0,0-6.564-3.559q-3.6-1.338-6.934-2.45-2.31-.739-4.158-1.433a17.971,17.971,0,0,1-3.191-1.525,6.171,6.171,0,0,1-2.033-1.941,5.13,5.13,0,0,1-.694-2.773,5.408,5.408,0,0,1,.879-3.191,7.182,7.182,0,0,1,2.172-2.034,8.263,8.263,0,0,1,2.911-1.062,18.754,18.754,0,0,1,3.191-.279,14.981,14.981,0,0,1,6.332,1.527,14.28,14.28,0,0,1,5.316,4.114Z" style="fill:#fff"/></g></g></svg>